<svg width="1440" height="1024" viewBox="0 0 1440 1024" fill="none" xmlns="http://www.w3.org/2000/svg">
<rect width="1440" height="1024" fill="url(#paint0_linear_1_2)"/>
<path d="M407.592 512V422.4H441.128C448.723 422.4 455.251 423.637 460.712 426.112C466.173 428.501 470.355 432 473.256 436.608C476.243 441.131 477.736 446.635 477.736 453.12C477.736 459.435 476.243 464.896 473.256 469.504C470.355 474.027 466.173 477.525 460.712 480C455.251 482.475 448.723 483.712 441.128 483.712H412.84L417.064 479.232V512H407.592ZM417.064 480L412.84 475.392H440.872C449.832 475.392 456.616 473.472 461.224 469.632C465.917 465.707 468.264 460.203 468.264 453.12C468.264 445.952 465.917 440.405 461.224 436.48C456.616 432.555 449.832 430.592 440.872 430.592H412.84L417.064 426.112V480ZM523.314 512.64C516.829 512.64 510.983 511.189 505.778 508.288C500.658 505.301 496.605 501.248 493.618 496.128C490.631 490.923 489.138 484.992 489.138 478.336C489.138 471.595 490.631 465.664 493.618 460.544C496.605 455.424 500.658 451.413 505.778 448.512C510.898 445.611 516.743 444.16 523.314 444.16C529.97 444.16 535.858 445.611 540.978 448.512C546.183 451.413 550.237 455.424 553.138 460.544C556.125 465.664 557.618 471.595 557.618 478.336C557.618 484.992 556.125 490.923 553.138 496.128C550.237 501.248 546.183 505.301 540.978 508.288C535.773 511.189 529.885 512.64 523.314 512.64ZM523.314 504.576C528.178 504.576 532.487 503.509 536.242 501.376C539.997 499.157 542.941 496.085 545.074 492.16C547.293 488.149 548.402 483.541 548.402 478.336C548.402 473.045 547.293 468.437 545.074 464.512C542.941 460.587 539.997 457.557 536.242 455.424C532.487 453.205 528.221 452.096 523.442 452.096C518.663 452.096 514.397 453.205 510.642 455.424C506.887 457.557 503.901 460.587 501.682 464.512C499.463 468.437 498.354 473.045 498.354 478.336C498.354 483.541 499.463 488.149 501.682 492.16C503.901 496.085 506.887 499.157 510.642 501.376C514.397 503.509 518.621 504.576 523.314 504.576ZM604.076 512.64C597.42 512.64 591.447 511.189 586.156 508.288C580.951 505.301 576.855 501.248 573.868 496.128C570.881 490.923 569.388 484.992 569.388 478.336C569.388 471.595 570.881 465.664 573.868 460.544C576.855 455.424 580.951 451.413 586.156 448.512C591.447 445.611 597.42 444.16 604.076 444.16C609.793 444.16 614.956 445.269 619.564 447.488C624.172 449.707 627.799 453.035 630.444 457.472L623.66 462.08C621.356 458.667 618.497 456.149 615.084 454.528C611.671 452.907 607.959 452.096 603.948 452.096C599.169 452.096 594.86 453.205 591.02 455.424C587.18 457.557 584.151 460.587 581.932 464.512C579.713 468.437 578.604 473.045 578.604 478.336C578.604 483.627 579.713 488.235 581.932 492.16C584.151 496.085 587.18 499.157 591.02 501.376C594.86 503.509 599.169 504.576 603.948 504.576C607.959 504.576 611.671 503.765 615.084 502.144C618.497 500.523 621.356 498.048 623.66 494.72L630.444 499.328C627.799 503.68 624.172 507.008 619.564 509.312C614.956 511.531 609.793 512.64 604.076 512.64ZM654.465 494.592L654.721 482.944L696.577 444.8H707.713L678.145 473.088L673.025 477.44L654.465 494.592ZM647.297 512V417.024H656.385V512H647.297ZM699.393 512L671.361 477.056L677.249 470.016L710.529 512H699.393ZM750.091 512.64C743.094 512.64 736.95 511.189 731.659 508.288C726.368 505.301 722.23 501.248 719.243 496.128C716.256 490.923 714.763 484.992 714.763 478.336C714.763 471.68 716.171 465.792 718.987 460.672C721.888 455.552 725.814 451.541 730.763 448.64C735.798 445.653 741.43 444.16 747.659 444.16C753.974 444.16 759.563 445.611 764.427 448.512C769.376 451.328 773.259 455.339 776.075 460.544C778.891 465.664 780.299 471.595 780.299 478.336C780.299 478.763 780.256 479.232 780.171 479.744C780.171 480.171 780.171 480.64 780.171 481.152H721.675V474.368H775.307L771.723 477.056C771.723 472.192 770.656 467.883 768.523 464.128C766.475 460.288 763.659 457.301 760.075 455.168C756.491 453.035 752.352 451.968 747.659 451.968C743.051 451.968 738.912 453.035 735.243 455.168C731.574 457.301 728.715 460.288 726.667 464.128C724.619 467.968 723.595 472.363 723.595 477.312V478.72C723.595 483.84 724.704 488.363 726.923 492.288C729.227 496.128 732.384 499.157 736.395 501.376C740.491 503.509 745.142 504.576 750.347 504.576C754.443 504.576 758.24 503.851 761.739 502.4C765.323 500.949 768.395 498.731 770.955 495.744L776.075 501.632C773.088 505.216 769.334 507.947 764.811 509.824C760.374 511.701 755.467 512.64 750.091 512.64ZM820.045 512.64C813.73 512.64 808.866 510.933 805.453 507.52C802.04 504.107 800.333 499.285 800.333 493.056V429.952H809.421V492.544C809.421 496.469 810.402 499.499 812.365 501.632C814.413 503.765 817.314 504.832 821.069 504.832C825.08 504.832 828.408 503.68 831.053 501.376L834.253 507.904C832.461 509.525 830.285 510.72 827.725 511.488C825.25 512.256 822.69 512.64 820.045 512.64ZM788.301 452.352V444.8H829.901V452.352H788.301ZM891.885 512.768C885.144 512.768 878.872 511.659 873.069 509.44C867.352 507.136 862.36 503.936 858.093 499.84C853.912 495.659 850.626 490.837 848.237 485.376C845.933 479.829 844.781 473.771 844.781 467.2C844.781 460.629 845.933 454.613 848.237 449.152C850.626 443.605 853.912 438.784 858.093 434.688C862.36 430.507 867.352 427.307 873.069 425.088C878.786 422.784 885.058 421.632 891.885 421.632C898.626 421.632 904.856 422.784 910.573 425.088C916.29 427.307 921.24 430.464 925.421 434.56C929.688 438.656 932.973 443.477 935.277 449.024C937.666 454.571 938.861 460.629 938.861 467.2C938.861 473.771 937.666 479.829 935.277 485.376C932.973 490.923 929.688 495.744 925.421 499.84C921.24 503.936 916.29 507.136 910.573 509.44C904.856 511.659 898.626 512.768 891.885 512.768ZM891.885 504.32C897.261 504.32 902.21 503.424 906.733 501.632C911.341 499.755 915.309 497.152 918.637 493.824C922.05 490.411 924.696 486.485 926.573 482.048C928.45 477.525 929.389 472.576 929.389 467.2C929.389 461.824 928.45 456.917 926.573 452.48C924.696 447.957 922.05 444.032 918.637 440.704C915.309 437.291 911.341 434.688 906.733 432.896C902.21 431.019 897.261 430.08 891.885 430.08C886.509 430.08 881.517 431.019 876.909 432.896C872.301 434.688 868.29 437.291 864.877 440.704C861.549 444.032 858.904 447.957 856.941 452.48C855.064 456.917 854.125 461.824 854.125 467.2C854.125 472.491 855.064 477.397 856.941 481.92C858.904 486.443 861.549 490.411 864.877 493.824C868.29 497.152 872.301 499.755 876.909 501.632C881.517 503.424 886.509 504.32 891.885 504.32ZM984.796 512.768C978.14 512.768 971.74 511.701 965.596 509.568C959.537 507.349 954.844 504.533 951.516 501.12L955.228 493.824C958.385 496.896 962.609 499.499 967.9 501.632C973.276 503.68 978.908 504.704 984.796 504.704C990.428 504.704 994.993 504.021 998.492 502.656C1002.08 501.205 1004.68 499.285 1006.3 496.896C1008.01 494.507 1008.86 491.861 1008.86 488.96C1008.86 485.461 1007.84 482.645 1005.79 480.512C1003.83 478.379 1001.22 476.715 997.98 475.52C994.737 474.24 991.153 473.131 987.228 472.192C983.303 471.253 979.377 470.272 975.452 469.248C971.527 468.139 967.9 466.688 964.572 464.896C961.329 463.104 958.684 460.757 956.636 457.856C954.673 454.869 953.692 450.987 953.692 446.208C953.692 441.771 954.844 437.717 957.148 434.048C959.537 430.293 963.164 427.307 968.028 425.088C972.892 422.784 979.121 421.632 986.716 421.632C991.751 421.632 996.743 422.357 1001.69 423.808C1006.64 425.173 1010.91 427.093 1014.49 429.568L1011.29 437.12C1007.45 434.56 1003.36 432.683 999.004 431.488C994.737 430.293 990.599 429.696 986.588 429.696C981.212 429.696 976.775 430.421 973.276 431.872C969.777 433.323 967.175 435.285 965.468 437.76C963.847 440.149 963.036 442.88 963.036 445.952C963.036 449.451 964.017 452.267 965.98 454.4C968.028 456.533 970.673 458.197 973.916 459.392C977.244 460.587 980.871 461.653 984.796 462.592C988.721 463.531 992.604 464.555 996.444 465.664C1000.37 466.773 1003.95 468.224 1007.2 470.016C1010.52 471.723 1013.17 474.027 1015.13 476.928C1017.18 479.829 1018.2 483.627 1018.2 488.32C1018.2 492.672 1017.01 496.725 1014.62 500.48C1012.23 504.149 1008.56 507.136 1003.61 509.44C998.748 511.659 992.476 512.768 984.796 512.768Z" fill="url(#paint1_radial_1_2)"/>
<defs>
<linearGradient id="paint0_linear_1_2" x1="95" y1="245" x2="720" y2="1024" gradientUnits="userSpaceOnUse">
<stop stop-color="#FF7C75"/>
<stop offset="1" stop-color="#5B6876"/>
</linearGradient>
<radialGradient id="paint1_radial_1_2" cx="0" cy="0" r="1" gradientUnits="userSpaceOnUse" gradientTransform="translate(463.785 365.528) rotate(23.1946) scale(652.451 650.088)">
<stop stop-color="white"/>
<stop offset="1" stop-color="white" stop-opacity="0"/>
</radialGradient>
</defs>
</svg>
